<svg xmlns="http://www.w3.org/2000/svg" width="1600" height="900" viewBox="0 0 1600 900" role="img" aria-label="אליס בארץ הגבול">
  <defs>
    <linearGradient id="bg" x1="1" y1="0" x2="0" y2="1">
      <stop offset="0%" stop-color="#2a0b06"/>
      <stop offset="60%" stop-color="#050508"/>
      <stop offset="100%" stop-color="#000"/>
    </linearGradient>
    <radialGradient id="glow" cx="26%" cy="42%" r="62%">
      <stop offset="0%" stop-color="#ff5a3c" stop-opacity="0.42"/>
      <stop offset="100%" stop-color="#ff5a3c" stop-opacity="0"/>
    </radialGradient>
    <linearGradient id="beam" x1="0" y1="0" x2="1" y2="1">
      <stop offset="0%" stop-color="#ff5a3c" stop-opacity="0.8"/>
      <stop offset="100%" stop-color="#ffb199" stop-opacity="0"/>
    </linearGradient>
    <linearGradient id="side" x1="1" y1="0" x2="0" y2="0">
      <stop offset="0%" stop-color="#050508"/>
      <stop offset="52%" stop-color="#050508" stop-opacity="0.85"/>
      <stop offset="100%" stop-color="#050508" stop-opacity="0"/>
    </linearGradient>
  </defs>

  <rect width="1600" height="900" fill="url(#bg)"/>
  <circle cx="430" cy="380" r="440" fill="url(#glow)"/>
  <rect x="-861.76" y="-500" width="39.988" height="2000" fill="url(#beam)" opacity="0.16" transform="rotate(-17 800 450)"/>
  <rect x="-600.48" y="-500" width="57.974" height="2000" fill="url(#beam)" opacity="0.22" transform="rotate(-17 800 450)"/>
  <rect x="-402.64" y="-500" width="39.482" height="2000" fill="url(#beam)" opacity="0.15" transform="rotate(-17 800 450)"/>
  <rect x="-200.72" y="-500" width="23.336" height="2000" fill="url(#beam)" opacity="0.10" transform="rotate(-17 800 450)"/>
  <rect x="22.32" y="-500" width="19.334" height="2000" fill="url(#beam)" opacity="0.08" transform="rotate(-17 800 450)"/>
  <rect x="290.56" y="-500" width="41.322" height="2000" fill="url(#beam)" opacity="0.16" transform="rotate(-17 800 450)"/>
  <rect x="530.08" y="-500" width="46.796" height="2000" fill="url(#beam)" opacity="0.18" transform="rotate(-17 800 450)"/>
  <rect x="782.48" y="-500" width="59.676" height="2000" fill="url(#beam)" opacity="0.22" transform="rotate(-17 800 450)"/>
  <rect x="958.08" y="-500" width="28.396" height="2000" fill="url(#beam)" opacity="0.12" transform="rotate(-17 800 450)"/>
  <rect width="1600" height="900" fill="#000" opacity="0.18"/>

  <rect x="0" y="0" width="1600" height="900" fill="url(#side)"/>
  <g font-family="Heebo, Assistant, Rubik, Arial, sans-serif" direction="rtl" text-anchor="middle">
    <text x="1168" y="364" font-size="24" font-weight="800" fill="#ff5a3c" letter-spacing="3">LEMONTANK ORIGINAL</text>
    <text x="1168" y="430" font-size="92" font-weight="900" fill="#fff" letter-spacing="-3">אליס בארץ הגבול</text>
  </g>
  <rect x="0" y="0" width="1600" height="900" fill="none" stroke="#ffffff" stroke-opacity="0.06"/>
</svg>
