<svg xmlns="http://www.w3.org/2000/svg" width="1600" height="900" viewBox="0 0 1600 900" role="img" aria-label="בלייד ראנר 2049">
  <defs>
    <linearGradient id="bg" x1="1" y1="0" x2="0" y2="1">
      <stop offset="0%" stop-color="#04191c"/>
      <stop offset="60%" stop-color="#050508"/>
      <stop offset="100%" stop-color="#000"/>
    </linearGradient>
    <radialGradient id="glow" cx="26%" cy="42%" r="62%">
      <stop offset="0%" stop-color="#38d6c4" stop-opacity="0.42"/>
      <stop offset="100%" stop-color="#38d6c4" stop-opacity="0"/>
    </radialGradient>
    <linearGradient id="beam" x1="0" y1="0" x2="1" y2="1">
      <stop offset="0%" stop-color="#38d6c4" stop-opacity="0.8"/>
      <stop offset="100%" stop-color="#b6f5ec" stop-opacity="0"/>
    </linearGradient>
    <linearGradient id="side" x1="1" y1="0" x2="0" y2="0">
      <stop offset="0%" stop-color="#050508"/>
      <stop offset="52%" stop-color="#050508" stop-opacity="0.85"/>
      <stop offset="100%" stop-color="#050508" stop-opacity="0"/>
    </linearGradient>
  </defs>

  <rect width="1600" height="900" fill="url(#bg)"/>
  <circle cx="430" cy="380" r="440" fill="url(#glow)"/>
  <rect x="-850" y="-500" width="46.75" height="2000" fill="url(#beam)" opacity="0.18" transform="rotate(-17 800 450)"/>
  <rect x="-637.52" y="-500" width="36.676" height="2000" fill="url(#beam)" opacity="0.14" transform="rotate(-17 800 450)"/>
  <rect x="-371.92" y="-500" width="57.146" height="2000" fill="url(#beam)" opacity="0.22" transform="rotate(-17 800 450)"/>
  <rect x="-153.04000000000002" y="-500" width="50.751999999999995" height="2000" fill="url(#beam)" opacity="0.19" transform="rotate(-17 800 450)"/>
  <rect x="34.239999999999995" y="-500" width="26.188" height="2000" fill="url(#beam)" opacity="0.11" transform="rotate(-17 800 450)"/>
  <rect x="273.52" y="-500" width="31.524" height="2000" fill="url(#beam)" opacity="0.13" transform="rotate(-17 800 450)"/>
  <rect x="545.84" y="-500" width="55.858" height="2000" fill="url(#beam)" opacity="0.21" transform="rotate(-17 800 450)"/>
  <rect x="726.4" y="-500" width="27.43" height="2000" fill="url(#beam)" opacity="0.11" transform="rotate(-17 800 450)"/>
  <rect x="944.08" y="-500" width="20.346" height="2000" fill="url(#beam)" opacity="0.09" transform="rotate(-17 800 450)"/>
  <rect width="1600" height="900" fill="#000" opacity="0.18"/>

  <rect x="0" y="0" width="1600" height="900" fill="url(#side)"/>
  <g font-family="Heebo, Assistant, Rubik, Arial, sans-serif" direction="rtl" text-anchor="middle">
    <text x="1168" y="364" font-size="24" font-weight="800" fill="#38d6c4" letter-spacing="3">LEMONTANK ORIGINAL</text>
    <text x="1168" y="430" font-size="92" font-weight="900" fill="#fff" letter-spacing="-3">בלייד ראנר 2049</text>
  </g>
  <rect x="0" y="0" width="1600" height="900" fill="none" stroke="#ffffff" stroke-opacity="0.06"/>
</svg>
