<svg xmlns="http://www.w3.org/2000/svg" width="1600" height="900" viewBox="0 0 1600 900" role="img" aria-label="ברוקלין 9-9">
  <defs>
    <linearGradient id="bg" x1="1" y1="0" x2="0" y2="1">
      <stop offset="0%" stop-color="#2a1f04"/>
      <stop offset="60%" stop-color="#050508"/>
      <stop offset="100%" stop-color="#000"/>
    </linearGradient>
    <radialGradient id="glow" cx="26%" cy="42%" r="62%">
      <stop offset="0%" stop-color="#ffc93c" stop-opacity="0.42"/>
      <stop offset="100%" stop-color="#ffc93c" stop-opacity="0"/>
    </radialGradient>
    <linearGradient id="beam" x1="0" y1="0" x2="1" y2="1">
      <stop offset="0%" stop-color="#ffc93c" stop-opacity="0.8"/>
      <stop offset="100%" stop-color="#fff0b8" stop-opacity="0"/>
    </linearGradient>
    <linearGradient id="side" x1="1" y1="0" x2="0" y2="0">
      <stop offset="0%" stop-color="#050508"/>
      <stop offset="52%" stop-color="#050508" stop-opacity="0.85"/>
      <stop offset="100%" stop-color="#050508" stop-opacity="0"/>
    </linearGradient>
  </defs>

  <rect width="1600" height="900" fill="url(#bg)"/>
  <circle cx="430" cy="380" r="440" fill="url(#glow)"/>
  <rect x="-846.4" y="-500" width="48.82" height="2000" fill="url(#beam)" opacity="0.19" transform="rotate(-17 800 450)"/>
  <rect x="-636.64" y="-500" width="37.182" height="2000" fill="url(#beam)" opacity="0.15" transform="rotate(-17 800 450)"/>
  <rect x="-371.68" y="-500" width="57.284" height="2000" fill="url(#beam)" opacity="0.22" transform="rotate(-17 800 450)"/>
  <rect x="-132.96" y="-500" width="62.298" height="2000" fill="url(#beam)" opacity="0.23" transform="rotate(-17 800 450)"/>
  <rect x="59.2" y="-500" width="40.54" height="2000" fill="url(#beam)" opacity="0.16" transform="rotate(-17 800 450)"/>
  <rect x="319.76" y="-500" width="58.112" height="2000" fill="url(#beam)" opacity="0.22" transform="rotate(-17 800 450)"/>
  <rect x="497.44" y="-500" width="28.028" height="2000" fill="url(#beam)" opacity="0.11" transform="rotate(-17 800 450)"/>
  <rect x="774.32" y="-500" width="54.984" height="2000" fill="url(#beam)" opacity="0.21" transform="rotate(-17 800 450)"/>
  <rect x="976.08" y="-500" width="38.746" height="2000" fill="url(#beam)" opacity="0.15" transform="rotate(-17 800 450)"/>
  <rect width="1600" height="900" fill="#000" opacity="0.18"/>

  <rect x="0" y="0" width="1600" height="900" fill="url(#side)"/>
  <g font-family="Heebo, Assistant, Rubik, Arial, sans-serif" direction="rtl" text-anchor="middle">
    <text x="1168" y="364" font-size="24" font-weight="800" fill="#ffc93c" letter-spacing="3">LEMONTANK ORIGINAL</text>
    <text x="1168" y="430" font-size="92" font-weight="900" fill="#fff" letter-spacing="-3">ברוקלין 9-9</text>
  </g>
  <rect x="0" y="0" width="1600" height="900" fill="none" stroke="#ffffff" stroke-opacity="0.06"/>
</svg>
