<svg xmlns="http://www.w3.org/2000/svg" width="1600" height="900" viewBox="0 0 1600 900" role="img" aria-label="קוקו">
  <defs>
    <linearGradient id="bg" x1="1" y1="0" x2="0" y2="1">
      <stop offset="0%" stop-color="#06202a"/>
      <stop offset="60%" stop-color="#050508"/>
      <stop offset="100%" stop-color="#000"/>
    </linearGradient>
    <radialGradient id="glow" cx="26%" cy="42%" r="62%">
      <stop offset="0%" stop-color="#ffd166" stop-opacity="0.42"/>
      <stop offset="100%" stop-color="#ffd166" stop-opacity="0"/>
    </radialGradient>
    <linearGradient id="beam" x1="0" y1="0" x2="1" y2="1">
      <stop offset="0%" stop-color="#ffd166" stop-opacity="0.8"/>
      <stop offset="100%" stop-color="#fff2cf" stop-opacity="0"/>
    </linearGradient>
    <linearGradient id="side" x1="1" y1="0" x2="0" y2="0">
      <stop offset="0%" stop-color="#050508"/>
      <stop offset="52%" stop-color="#050508" stop-opacity="0.85"/>
      <stop offset="100%" stop-color="#050508" stop-opacity="0"/>
    </linearGradient>
  </defs>

  <rect width="1600" height="900" fill="url(#bg)"/>
  <circle cx="430" cy="380" r="440" fill="url(#glow)"/>
  <rect x="-898.24" y="-500" width="19.012" height="2000" fill="url(#beam)" opacity="0.08" transform="rotate(-17 800 450)"/>
  <rect x="-629.6" y="-500" width="41.230000000000004" height="2000" fill="url(#beam)" opacity="0.16" transform="rotate(-17 800 450)"/>
  <rect x="-369.92" y="-500" width="58.296" height="2000" fill="url(#beam)" opacity="0.22" transform="rotate(-17 800 450)"/>
  <rect x="-132.48000000000002" y="-500" width="62.574" height="2000" fill="url(#beam)" opacity="0.24" transform="rotate(-17 800 450)"/>
  <rect x="59.36" y="-500" width="40.632" height="2000" fill="url(#beam)" opacity="0.16" transform="rotate(-17 800 450)"/>
  <rect x="279.84" y="-500" width="35.158" height="2000" fill="url(#beam)" opacity="0.14" transform="rotate(-17 800 450)"/>
  <rect x="547.44" y="-500" width="56.778" height="2000" fill="url(#beam)" opacity="0.21" transform="rotate(-17 800 450)"/>
  <rect x="746.8" y="-500" width="39.16" height="2000" fill="url(#beam)" opacity="0.15" transform="rotate(-17 800 450)"/>
  <rect x="989.2" y="-500" width="46.29" height="2000" fill="url(#beam)" opacity="0.18" transform="rotate(-17 800 450)"/>
  <rect width="1600" height="900" fill="#000" opacity="0.18"/>

  <rect x="0" y="0" width="1600" height="900" fill="url(#side)"/>
  <g font-family="Heebo, Assistant, Rubik, Arial, sans-serif" direction="rtl" text-anchor="middle">
    <text x="1168" y="364" font-size="24" font-weight="800" fill="#ffd166" letter-spacing="3">LEMONTANK ORIGINAL</text>
    <text x="1168" y="430" font-size="92" font-weight="900" fill="#fff" letter-spacing="-3">קוקו</text>
  </g>
  <rect x="0" y="0" width="1600" height="900" fill="none" stroke="#ffffff" stroke-opacity="0.06"/>
</svg>
