<svg xmlns="http://www.w3.org/2000/svg" width="600" height="900" viewBox="0 0 600 900" role="img" aria-label="הפיג'מות">
  <defs>
    <linearGradient id="bg" x1="0" y1="0" x2="0.7" y2="1">
      <stop offset="0%" stop-color="#2a1f04"/>
      <stop offset="55%" stop-color="#050508"/>
      <stop offset="100%" stop-color="#000000"/>
    </linearGradient>
    <radialGradient id="glow" cx="50%" cy="42%" r="55%">
      <stop offset="0%" stop-color="#ffc93c" stop-opacity="0.55"/>
      <stop offset="100%" stop-color="#ffc93c" stop-opacity="0"/>
    </radialGradient>
    <linearGradient id="beam" x1="0" y1="0" x2="1" y2="1">
      <stop offset="0%" stop-color="#ffc93c" stop-opacity="0.9"/>
      <stop offset="100%" stop-color="#fff0b8" stop-opacity="0"/>
    </linearGradient>
    <linearGradient id="fade" x1="0" y1="0" x2="0" y2="1">
      <stop offset="45%" stop-color="#000" stop-opacity="0"/>
      <stop offset="100%" stop-color="#000" stop-opacity="0.92"/>
    </linearGradient>
  </defs>

  <rect width="600" height="900" fill="url(#bg)"/>
  <g>
      <rect x="-175" y="-260" width="25" height="1500" fill="url(#beam)" opacity="0.21" transform="rotate(18 300 600)"/>
      <rect x="-22" y="-260" width="37" height="1500" fill="url(#beam)" opacity="0.19" transform="rotate(18 300 600)"/>
      <rect x="74" y="-260" width="34" height="1500" fill="url(#beam)" opacity="0.16" transform="rotate(18 300 600)"/>
      <rect x="222" y="-260" width="28" height="1500" fill="url(#beam)" opacity="0.28" transform="rotate(18 300 600)"/>
      <rect x="346" y="-260" width="53" height="1500" fill="url(#beam)" opacity="0.25" transform="rotate(18 300 600)"/>
      <rect x="468" y="-260" width="46" height="1500" fill="url(#beam)" opacity="0.12" transform="rotate(18 300 600)"/>
      <rect x="635" y="-260" width="20" height="1500" fill="url(#beam)" opacity="0.10" transform="rotate(18 300 600)"/>
  </g>
  <rect width="600" height="900" fill="url(#fade)"/>

  <!-- תג עליון -->
  <g font-family="Heebo, Assistant, Arial, sans-serif" direction="rtl">
    <rect x="448" y="34" width="118" height="34" rx="17" fill="#ffc93c" opacity="0.92"/>
    <text x="507" y="57" text-anchor="middle" font-size="17" font-weight="800" fill="#0a0a10">סדרה</text>
    <text x="34" y="58" font-size="16" font-weight="700" fill="#fff0b8" opacity="0.9" direction="ltr" text-anchor="start">LEMONTANK</text>
  </g>

  <!-- כותרת -->
  <g font-family="Heebo, Assistant, Rubik, Arial, sans-serif">
    <text x="300" y="700" text-anchor="middle" direction="rtl" font-size="64" font-weight="900" fill="#ffffff" letter-spacing="-1.5">הפיג'מות</text>
  </g>

  <!-- מטא -->
  <g font-family="Heebo, Assistant, Arial, sans-serif" direction="rtl">
    <line x1="150" y1="738" x2="450" y2="738" stroke="#ffc93c" stroke-width="2" opacity="0.65"/>
    <text x="300" y="768" text-anchor="middle" font-size="23" font-weight="700" fill="#fff0b8" opacity="0.95">2003 · 9 עונות · ★ 8.2</text>
    <text x="300" y="800" text-anchor="middle" font-size="17" font-weight="600" fill="#ffffff" opacity="0.62" direction="ltr">HaPijamot</text>
  </g>

  <rect x="0.5" y="0.5" width="599" height="899" fill="none" stroke="#ffffff" stroke-opacity="0.09"/>
</svg>
