<svg xmlns="http://www.w3.org/2000/svg" width="1600" height="900" viewBox="0 0 1600 900" role="img" aria-label="וואן פיס">
  <defs>
    <linearGradient id="bg" x1="1" y1="0" x2="0" y2="1">
      <stop offset="0%" stop-color="#2a0b06"/>
      <stop offset="60%" stop-color="#050508"/>
      <stop offset="100%" stop-color="#000"/>
    </linearGradient>
    <radialGradient id="glow" cx="26%" cy="42%" r="62%">
      <stop offset="0%" stop-color="#ff5a3c" stop-opacity="0.42"/>
      <stop offset="100%" stop-color="#ff5a3c" stop-opacity="0"/>
    </radialGradient>
    <linearGradient id="beam" x1="0" y1="0" x2="1" y2="1">
      <stop offset="0%" stop-color="#ff5a3c" stop-opacity="0.8"/>
      <stop offset="100%" stop-color="#ffb199" stop-opacity="0"/>
    </linearGradient>
    <linearGradient id="side" x1="1" y1="0" x2="0" y2="0">
      <stop offset="0%" stop-color="#050508"/>
      <stop offset="52%" stop-color="#050508" stop-opacity="0.85"/>
      <stop offset="100%" stop-color="#050508" stop-opacity="0"/>
    </linearGradient>
  </defs>

  <rect width="1600" height="900" fill="url(#bg)"/>
  <circle cx="430" cy="380" r="440" fill="url(#glow)"/>
  <rect x="-820.24" y="-500" width="63.862" height="2000" fill="url(#beam)" opacity="0.24" transform="rotate(-17 800 450)"/>
  <rect x="-650.08" y="-500" width="29.454" height="2000" fill="url(#beam)" opacity="0.12" transform="rotate(-17 800 450)"/>
  <rect x="-435.04" y="-500" width="20.852" height="2000" fill="url(#beam)" opacity="0.09" transform="rotate(-17 800 450)"/>
  <rect x="-188.8" y="-500" width="30.19" height="2000" fill="url(#beam)" opacity="0.12" transform="rotate(-17 800 450)"/>
  <rect x="85.28" y="-500" width="55.535999999999994" height="2000" fill="url(#beam)" opacity="0.21" transform="rotate(-17 800 450)"/>
  <rect x="286.32" y="-500" width="38.884" height="2000" fill="url(#beam)" opacity="0.15" transform="rotate(-17 800 450)"/>
  <rect x="489.04" y="-500" width="23.198" height="2000" fill="url(#beam)" opacity="0.10" transform="rotate(-17 800 450)"/>
  <rect x="732.24" y="-500" width="30.788" height="2000" fill="url(#beam)" opacity="0.12" transform="rotate(-17 800 450)"/>
  <rect x="945.52" y="-500" width="21.174" height="2000" fill="url(#beam)" opacity="0.09" transform="rotate(-17 800 450)"/>
  <rect width="1600" height="900" fill="#000" opacity="0.18"/>

  <rect x="0" y="0" width="1600" height="900" fill="url(#side)"/>
  <g font-family="Heebo, Assistant, Rubik, Arial, sans-serif" direction="rtl" text-anchor="middle">
    <text x="1168" y="364" font-size="24" font-weight="800" fill="#ff5a3c" letter-spacing="3">LEMONTANK ORIGINAL</text>
    <text x="1168" y="430" font-size="92" font-weight="900" fill="#fff" letter-spacing="-3">וואן פיס</text>
  </g>
  <rect x="0" y="0" width="1600" height="900" fill="none" stroke="#ffffff" stroke-opacity="0.06"/>
</svg>
