<svg xmlns="http://www.w3.org/2000/svg" width="1600" height="900" viewBox="0 0 1600 900" role="img" aria-label="הדב">
  <defs>
    <linearGradient id="bg" x1="1" y1="0" x2="0" y2="1">
      <stop offset="0%" stop-color="#2a1f04"/>
      <stop offset="60%" stop-color="#050508"/>
      <stop offset="100%" stop-color="#000"/>
    </linearGradient>
    <radialGradient id="glow" cx="26%" cy="42%" r="62%">
      <stop offset="0%" stop-color="#ffc93c" stop-opacity="0.42"/>
      <stop offset="100%" stop-color="#ffc93c" stop-opacity="0"/>
    </radialGradient>
    <linearGradient id="beam" x1="0" y1="0" x2="1" y2="1">
      <stop offset="0%" stop-color="#ffc93c" stop-opacity="0.8"/>
      <stop offset="100%" stop-color="#fff0b8" stop-opacity="0"/>
    </linearGradient>
    <linearGradient id="side" x1="1" y1="0" x2="0" y2="0">
      <stop offset="0%" stop-color="#050508"/>
      <stop offset="52%" stop-color="#050508" stop-opacity="0.85"/>
      <stop offset="100%" stop-color="#050508" stop-opacity="0"/>
    </linearGradient>
  </defs>

  <rect width="1600" height="900" fill="url(#bg)"/>
  <circle cx="430" cy="380" r="440" fill="url(#glow)"/>
  <rect x="-842.24" y="-500" width="51.211999999999996" height="2000" fill="url(#beam)" opacity="0.20" transform="rotate(-17 800 450)"/>
  <rect x="-595.6" y="-500" width="60.78" height="2000" fill="url(#beam)" opacity="0.23" transform="rotate(-17 800 450)"/>
  <rect x="-361.44" y="-500" width="63.172" height="2000" fill="url(#beam)" opacity="0.24" transform="rotate(-17 800 450)"/>
  <rect x="-170.4" y="-500" width="40.769999999999996" height="2000" fill="url(#beam)" opacity="0.16" transform="rotate(-17 800 450)"/>
  <rect x="69.84" y="-500" width="46.658" height="2000" fill="url(#beam)" opacity="0.18" transform="rotate(-17 800 450)"/>
  <rect x="322.4" y="-500" width="59.63" height="2000" fill="url(#beam)" opacity="0.22" transform="rotate(-17 800 450)"/>
  <rect x="558.08" y="-500" width="62.896" height="2000" fill="url(#beam)" opacity="0.24" transform="rotate(-17 800 450)"/>
  <rect x="729.52" y="-500" width="29.224" height="2000" fill="url(#beam)" opacity="0.12" transform="rotate(-17 800 450)"/>
  <rect x="1004.88" y="-500" width="55.306000000000004" height="2000" fill="url(#beam)" opacity="0.21" transform="rotate(-17 800 450)"/>
  <rect width="1600" height="900" fill="#000" opacity="0.18"/>

  <rect x="0" y="0" width="1600" height="900" fill="url(#side)"/>
  <g font-family="Heebo, Assistant, Rubik, Arial, sans-serif" direction="rtl" text-anchor="middle">
    <text x="1168" y="364" font-size="24" font-weight="800" fill="#ffc93c" letter-spacing="3">LEMONTANK ORIGINAL</text>
    <text x="1168" y="430" font-size="92" font-weight="900" fill="#fff" letter-spacing="-3">הדב</text>
  </g>
  <rect x="0" y="0" width="1600" height="900" fill="none" stroke="#ffffff" stroke-opacity="0.06"/>
</svg>
